<svg width="57" height="56" fill="none" xmlns="http://www.w3.org/2000/svg"><path d="M16.273 51.333h24.454c6.44 0 9.006-3.943 9.31-8.75L51.25 23.31c.327-5.04-3.687-9.31-8.75-9.31a3.834 3.834 0 01-3.383-2.077l-1.68-3.383c-1.074-2.123-3.874-3.873-6.254-3.873H25.84c-2.403 0-5.203 1.75-6.277 3.873l-1.68 3.383A3.834 3.834 0 0114.5 14c-5.063 0-9.077 4.27-8.75 9.31l1.213 19.273c.28 4.807 2.87 8.75 9.31 8.75zM25 18.666h7" stroke="#D2353B" stroke-width="1.5" stroke-linecap="round" stroke-linejoin="round"/><path d="M28.5 42c4.177 0 7.583-3.407 7.583-7.583 0-4.177-3.406-7.584-7.583-7.584s-7.583 3.407-7.583 7.584c0 4.176 3.406 7.583 7.583 7.583z" stroke="#D2353B" stroke-width="1.5" stroke-linecap="round" stroke-linejoin="round"/></svg>