<svg width="26" height="27" fill="none" xmlns="http://www.w3.org/2000/svg"><rect x=".691" width="24.89" height="26.423" rx="5" fill="#E83231"/><path fill-rule="evenodd" clip-rule="evenodd" d="M20.399 5.201a.7.7 0 01.135.222.745.745 0 01-.135.747L6.753 21.223a.593.593 0 01-.44.2.593.593 0 01-.439-.2.722.722 0 01-.182-.485c0-.182.066-.356.182-.484L19.52 5.2a.62.62 0 01.202-.149.57.57 0 01.475 0 .62.62 0 01.202.149z" fill="#fff"/><path fill-rule="evenodd" clip-rule="evenodd" d="M5.874 5.201a.693.693 0 00-.135.222.746.746 0 00.135.747L19.52 21.223c.116.128.274.2.439.2a.593.593 0 00.44-.2.722.722 0 00.181-.485.723.723 0 00-.182-.484L6.752 5.2a.62.62 0 00-.201-.149.57.57 0 00-.476 0 .62.62 0 00-.201.149z" fill="#fff"/></svg>