<svg width="42" height="43" fill="none" xmlns="http://www.w3.org/2000/svg"><circle cx="21.12" cy="20.879" r="19.385" fill="#E83231" stroke="#fff" stroke-width=".7"/><path d="M21.5 29.228a8.729 8.729 0 008.729-8.729 8.729 8.729 0 00-8.73-8.728 8.729 8.729 0 00-8.728 8.728 8.729 8.729 0 008.729 8.73zM12.771 20.5h17.458" stroke="#fff" stroke-width=".9" stroke-linecap="round" stroke-linejoin="round"/><path d="M21.5 29.228c1.928 0 3.492-3.908 3.492-8.729 0-4.82-1.564-8.728-3.492-8.728s-3.491 3.907-3.491 8.728 1.563 8.73 3.491 8.73z" stroke="#fff" stroke-width=".9" stroke-linecap="round" stroke-linejoin="round"/><path d="M27.672 26.548a8.703 8.703 0 00-6.173-2.557 8.704 8.704 0 00-6.172 2.557m0-12.097a8.704 8.704 0 006.172 2.557v0a8.705 8.705 0 006.173-2.557H15.327z" stroke="#fff" stroke-width=".9" stroke-linecap="round" stroke-linejoin="round"/><path d="M2.917 26.85h0c-.598.46-.918 1.229-.821 2.031h0c.256 2.125 1.685 4.392 4.435 6.792 2.75 2.4 5.13 3.46 7.163 3.357h0a2.055 2.055 0 001.758-1.195l.412-.873h0a1.405 1.405 0 00-.46-1.723l-1.484-1.055h0a1.218 1.218 0 00-1.47.015l-1.578 1.244-.206.162-.25-.076a7.716 7.716 0 01-2.697-1.462c-.82-.676-1.453-1.45-1.884-2.324l-.11-.224.112-.223.984-1.943s0 0 0 0a1.403 1.403 0 00-.24-1.577l-3.664-.925zm0 0l.75-.576s0 0 0 0 0 0 0 0c.49-.375 1.2-.32 1.662.17 0 0 0 0 0 0l1.252 1.332-3.664-.925z" fill="#E83231" stroke="#fff"/><circle cx="21.878" cy="1.903" r="1.118" fill="#E83231" stroke="#fff" stroke-width=".8"/><circle cx="40.095" cy="20.119" r="1.118" fill="#E83231" stroke="#fff" stroke-width=".8"/><circle cx="21.878" cy="40.613" r="1.118" fill="#E83231" stroke="#fff" stroke-width=".8"/><circle cx="2.143" cy="20.119" r="1.118" fill="#E83231" stroke="#fff" stroke-width=".8"/><path d="M2.144 11.77h12.903V2.662H2.144v9.108zm0-9.108l6.451 4.554 6.452-4.554" fill="#E83231"/><path d="M15.047 2.662v9.108H2.144V2.662m12.903 0H2.144m12.903 0L8.595 7.216 2.144 2.662" stroke="#fff" stroke-linecap="round" stroke-linejoin="round"/><rect x="31.745" y="1.144" width="9.108" height="12.903" rx="4" fill="#E83231"/><path d="M32.546 10.821v.5h7.508v-.5l-.002-7.742v-.5h-7.506v8.242zm.5-9.177h6.506c.446 0 .801.359.801.79v10.323c0 .432-.355.79-.8.79h-6.507a.797.797 0 01-.8-.79V2.434c0-.431.355-.79.8-.79z" stroke="#fff"/><ellipse cx="37.059" cy="34.921" rx="3.795" ry="5.693" fill="#E83231"/><path d="M36.928 31.59c.579 0 1.125.403 1.525 1.03v.002c0-.301.13-.53.31-.53h.045c.283 0 .34.418.34.55v4.685c-.02.308.203.466.327.269.48-.773 1.056-3.975-.3-5.83-1.263-1.73-2.959-1.444-3.86-.473-.96 1.036-1.572 3.323-.977 5.472.65 2.344 2.508 3.043 3.614 2.346.56-.354.818.828.236 1.214-.877.585-3.32.526-4.462-2.565-.771-2.087-.73-5.76 1.315-7.662 1.564-1.456 3.628-1.053 4.871.977 1.3 2.125 1.225 6.1-.044 7.646-.575.703-1.428.019-1.422-1.005l-.006-.334c-.4.62-.933.983-1.512.983-1.147 0-2.156-1.578-2.156-3.369 0-1.81 1.01-3.404 2.156-3.404v-.001zm1.441 3.277c-.043-1.312-.666-2.101-1.418-2.101h-.028c-.868 0-1.35 1.068-1.35 2.278 0 1.358.583 2.216 1.346 2.216.852 0 1.412-.975 1.453-2.129l-.003-.264z" fill="#fff"/></svg>