<svg width="34" height="34" fill="none" xmlns="http://www.w3.org/2000/svg"><rect x=".921" y=".681" width="31.638" height="7.349" rx="2.5" fill="#C4C4C4" stroke="#fff"/><path d="M3.9 7.012s-.442 0-.442-.442c0-.443.442-1.771 2.656-1.771s2.657 1.328 2.657 1.77c0 .443-.443.443-.443.443H3.9zm2.214-2.656a1.328 1.328 0 100-2.657 1.328 1.328 0 000 2.657z" fill="#fff"/><path stroke="#fff" stroke-linecap="round" d="M11.547 2.717h4.314m-4.314 3.036h14.181"/><rect x=".921" y="12.825" width="31.638" height="7.349" rx="2.5" fill="#C4C4C4" stroke="#fff"/><path stroke="#fff" stroke-linecap="round" d="M11.547 14.861h4.314m-4.314 3.037h14.181"/><path d="M4.242 14.602h3.744c.2 0 .393.08.539.225a.84.84 0 01.245.551v2.957c0 .21-.076.412-.214.564a.77.77 0 01-.526.256l-.044.002H4.242c-.2 0-.393-.08-.539-.225a.84.84 0 01-.244-.551l-.001-.047v-2.91a.84.84 0 01.214-.564.77.77 0 01.526-.256l.044-.002zm4.166 1.495L6.198 17.3a.175.175 0 01-.14.012L6.03 17.3l-2.21-1.203v2.237c0 .112.04.219.112.3.071.082.17.133.276.142l.034.001h3.744a.412.412 0 00.286-.117.451.451 0 00.135-.29l.001-.036v-2.237zm-.422-1.115H4.242a.412.412 0 00-.286.117.451.451 0 00-.135.29l-.001.036v.244l2.294 1.25 2.294-1.25v-.244a.455.455 0 00-.111-.3.416.416 0 00-.277-.141l-.034-.002z" fill="#fff"/><rect x="6.235" y="24.97" width="21.771" height="8.108" rx="4.054" fill="#C4C4C4" stroke="#fff"/><path d="M14.084 29.176l2.277 2.125 4.554-4.554" stroke="#fff" stroke-width="1.2" stroke-linecap="round" stroke-linejoin="round"/></svg>