<svg width="67" height="28" fill="none" xmlns="http://www.w3.org/2000/svg"><path d="M4.423 28a4.312 4.312 0 004.308-4.308c0-.133-.028-.26-.04-.39l13.725-6.863a4.304 4.304 0 003.546 1.869c1.381 0 2.598-.665 3.388-1.68l5.795 4.968a4.256 4.256 0 00-.568 2.096A4.312 4.312 0 0038.885 28a4.312 4.312 0 004.307-4.308c0-.186-.032-.363-.054-.543L60.34 7.971a4.263 4.263 0 002.237.644 4.312 4.312 0 004.308-4.307A4.312 4.312 0 0062.577 0a4.312 4.312 0 00-4.308 4.308c0 .77.22 1.484.575 2.11L42.262 21.051c-.79-1.007-2.002-1.666-3.377-1.666a4.26 4.26 0 00-2.252.652l-6.418-5.5c.022-.178.054-.354.054-.537a4.312 4.312 0 00-4.307-4.308A4.312 4.312 0 0021.654 14c0 .133.028.26.04.39L7.968 21.255a4.302 4.302 0 00-3.545-1.87 4.312 4.312 0 00-4.308 4.308A4.312 4.312 0 004.423 28z" fill="#D2353B"/></svg>