<svg width="31" height="34" fill="none" xmlns="http://www.w3.org/2000/svg"><rect x=".801" y=".681" width="29.361" height="32.397" rx="1.5" stroke="#fff"/><path stroke="#fff" d="M9.409 2.717h21.253M11.686 4.994h10.627M4.096 7.271h5.313m-5.313 7.883h6.832m-6.832 6.539h6.832M2.578 2.717h.759m1.518 0h.759m1.518 0h.759"/><rect x="4.596" y="9.789" width="22.53" height="2.416" rx=".5" fill="#C4C4C4" stroke="#fff"/><rect x="4.596" y="24.97" width="22.53" height="2.416" rx=".5" fill="#C4C4C4" stroke="#fff"/><rect x="4.596" y="17.379" width="22.53" height="2.416" rx=".5" fill="#C4C4C4" stroke="#fff"/><path fill="#C4C4C4" d="M17 18.398h9.108v3.036H17zm0-6.832h9.108v3.036H17z"/><path d="M20.109 10.233v6.263l.488-.337 1.187-.827.6.988.128.222.267-.115.911-.39.258-.108-.129-.222-.543-.888 1.492-.153.598-.061-.423-.352-4.327-3.606-.507-.414zm.59 1.187l3.406 2.825-1.326.13-.415.046.194.314.608.98-.387.168-.635-1.056-.175-.276-.286.2-.985.688V11.42z" fill="#fff"/></svg>