<svg width="488" height="889" fill="none" xmlns="http://www.w3.org/2000/svg"><path d="M3 114.54c182.1 0 329.72 147.62 329.72 329.72C332.7 625.81 186 773.09 4.61 774" stroke="#D2353B" stroke-width="4.96" stroke-linecap="round" stroke-linejoin="round"/><path d="M140.14 143.98L205.3 1.36" stroke="#D2353B" stroke-width="4.96" stroke-miterlimit="10"/><path d="M128.43 143.83a11.525 11.525 0 017.1-10.638 11.51 11.51 0 016.649-.664 11.52 11.52 0 11-13.749 11.302z" fill="#D2353B"/><path d="M294.75 292.79l137.06-71.12" stroke="#D2353B" stroke-width="4.96" stroke-miterlimit="10"/><path d="M283.29 292.8a11.516 11.516 0 017.112-10.643 11.521 11.521 0 0115.707 8.395 11.524 11.524 0 01-11.299 13.768 11.523 11.523 0 01-11.52-11.52z" fill="#D2353B"/><path d="M332.7 444.25h154.44" stroke="#D2353B" stroke-width="4.96" stroke-miterlimit="10"/><path d="M321.38 444.72a11.523 11.523 0 017.111-10.643 11.524 11.524 0 0112.555 2.497 11.524 11.524 0 01-8.146 19.666 11.532 11.532 0 01-11.52-11.52z" fill="#D2353B"/><path d="M293.86 595.79l137.95 71.59" stroke="#D2353B" stroke-width="4.96" stroke-miterlimit="10"/><path d="M283.75 596.79c0-2.279.676-4.506 1.941-6.401a11.527 11.527 0 0111.826-4.898 11.517 11.517 0 018.396 15.707 11.518 11.518 0 01-18.786 3.734 11.528 11.528 0 01-3.377-8.142z" fill="#D2353B"/><path d="M140.1 744.99l65.2 142.7" stroke="#D2353B" stroke-width="4.96" stroke-miterlimit="10"/><path d="M128.22 744.47a11.525 11.525 0 017.12-10.653 11.53 11.53 0 114.4 22.183 11.51 11.51 0 01-8.15-3.378 11.519 11.519 0 01-3.37-8.152z" fill="#D2353B"/></svg>