<svg xmlns="http://www.w3.org/2000/svg" width="119" height="80" viewBox="0 0 119 80" fill="none">
    <g clip-path="url(#clip0_581_3984)">
        <path d="M108.422 78.5352C108.771 79.2011 108.288 80 107.536 80H84.5972C84.2256 80 83.8846 79.7939 83.7118 79.4648L67.3089 48.2183C67.2336 48.0749 67.1943 47.9154 67.1943 47.7535V0.999999C67.1943 0.447714 67.642 0 68.1943 0H116.59C117.142 0 117.59 0.447715 117.59 1V47C117.59 47.5523 117.142 48 116.59 48H94.0464C93.2943 48 92.8114 48.7989 93.161 49.4648L108.422 78.5352ZM41.2277 78.5352C41.5772 79.2011 41.0943 80 40.3422 80H17.4034C17.0317 80 16.6907 79.7939 16.518 79.4648L0.115036 48.2183C0.039772 48.0749 0.000450134 47.9154 0.000450134 47.7535V0.999999C0.000450134 0.447714 0.448166 0 1.00045 0H49.3959C49.9481 0 50.3959 0.447715 50.3959 1V47C50.3959 47.5523 49.9481 48 49.3959 48H26.8525C26.1005 48 25.6176 48.7989 25.9671 49.4648L41.2277 78.5352Z" fill="#CB142B"/>
    </g>
    <defs>
        <clipPath id="clip0_581_3984">
            <rect width="118.989" height="80" fill="white" transform="matrix(-1 0 0 1 118.989 0)"/>
        </clipPath>
    </defs>
</svg>