<svg width="20" height="21" viewBox="0 0 20 21" fill="none" xmlns="http://www.w3.org/2000/svg">
<path fill-rule="evenodd" clip-rule="evenodd" d="M1.25 10.5001C1.25 10.3343 1.31585 10.1753 1.43306 10.0581C1.55027 9.94091 1.70924 9.87506 1.875 9.87506H16.6163L12.6825 5.94256C12.5651 5.8252 12.4992 5.66603 12.4992 5.50006C12.4992 5.33409 12.5651 5.17492 12.6825 5.05756C12.7999 4.9402 12.959 4.87427 13.125 4.87427C13.291 4.87427 13.4501 4.9402 13.5675 5.05756L18.5675 10.0576C18.6257 10.1156 18.6719 10.1846 18.7034 10.2605C18.7349 10.3364 18.7511 10.4178 18.7511 10.5001C18.7511 10.5823 18.7349 10.6637 18.7034 10.7396C18.6719 10.8155 18.6257 10.8845 18.5675 10.9426L13.5675 15.9426C13.4501 16.0599 13.291 16.1258 13.125 16.1258C12.959 16.1258 12.7999 16.0599 12.6825 15.9426C12.5651 15.8252 12.4992 15.666 12.4992 15.5001C12.4992 15.3341 12.5651 15.1749 12.6825 15.0576L16.6163 11.1251H1.875C1.70924 11.1251 1.55027 11.0592 1.43306 10.942C1.31585 10.8248 1.25 10.6658 1.25 10.5001Z" fill="#ED1C24"/>
</svg>
