<svg width="20" height="21" viewBox="0 0 20 21" fill="none" xmlns="http://www.w3.org/2000/svg">
<path fill-rule="evenodd" clip-rule="evenodd" d="M5.80736 2.55752C5.74916 2.61558 5.70298 2.68455 5.67147 2.76048C5.63996 2.83641 5.62374 2.91781 5.62374 3.00002C5.62374 3.08223 5.63996 3.16363 5.67147 3.23956C5.70298 3.31549 5.74916 3.38446 5.80736 3.44252L12.8661 10.5L5.80736 17.5575C5.69 17.6749 5.62407 17.834 5.62407 18C5.62407 18.166 5.69 18.3252 5.80736 18.4425C5.92472 18.5599 6.08389 18.6258 6.24986 18.6258C6.41583 18.6258 6.575 18.5599 6.69236 18.4425L14.1924 10.9425C14.2506 10.8845 14.2967 10.8155 14.3283 10.7396C14.3598 10.6636 14.376 10.5822 14.376 10.5C14.376 10.4178 14.3598 10.3364 14.3283 10.2605C14.2967 10.1845 14.2506 10.1156 14.1924 10.0575L6.69236 2.55752C6.6343 2.49931 6.56533 2.45314 6.4894 2.42163C6.41347 2.39012 6.33207 2.3739 6.24986 2.3739C6.16765 2.3739 6.08625 2.39012 6.01032 2.42163C5.93439 2.45314 5.86542 2.49931 5.80736 2.55752Z" fill="#726F70"/>
</svg>
