<svg width="20" height="21" viewBox="0 0 20 21" fill="none" xmlns="http://www.w3.org/2000/svg">
<path fill-rule="evenodd" clip-rule="evenodd" d="M14.1926 2.55752C14.2508 2.61558 14.297 2.68455 14.3285 2.76048C14.36 2.83641 14.3763 2.91781 14.3763 3.00002C14.3763 3.08223 14.36 3.16363 14.3285 3.23956C14.297 3.31549 14.2508 3.38446 14.1926 3.44252L7.13389 10.5L14.1926 17.5575C14.31 17.6749 14.3759 17.834 14.3759 18C14.3759 18.166 14.31 18.3252 14.1926 18.4425C14.0753 18.5599 13.9161 18.6258 13.7501 18.6258C13.5842 18.6258 13.425 18.5599 13.3076 18.4425L5.80764 10.9425C5.74944 10.8845 5.70326 10.8155 5.67175 10.7396C5.64024 10.6636 5.62402 10.5822 5.62402 10.5C5.62402 10.4178 5.64024 10.3364 5.67175 10.2605C5.70326 10.1845 5.74944 10.1156 5.80764 10.0575L13.3076 2.55752C13.3657 2.49931 13.4347 2.45314 13.5106 2.42163C13.5865 2.39012 13.6679 2.3739 13.7501 2.3739C13.8323 2.3739 13.9137 2.39012 13.9897 2.42163C14.0656 2.45314 14.1346 2.49931 14.1926 2.55752Z" fill="#726F70"/>
</svg>
