<svg width="36" height="36" fill="none" xmlns="http://www.w3.org/2000/svg"><path d="M30.404 5.36a3.424 3.424 0 012.309-.86 3.418 3.418 0 012.295.894 3.04 3.04 0 01.99 2.145 3.02 3.02 0 01-.869 2.192L17.51 30.502a3.313 3.313 0 01-1.075.726 3.482 3.482 0 01-2.592.045 3.336 3.336 0 01-1.103-.688L1.054 19.572a3.132 3.132 0 01-.767-1.013 2.964 2.964 0 01-.046-2.44c.167-.388.415-.741.73-1.038.314-.296.688-.53 1.1-.687a3.49 3.49 0 012.59.043c.405.17.771.417 1.074.723l9.248 8.712L30.32 5.452a1.14 1.14 0 01.088-.091h-.004z" fill="#fff"/></svg>