<svg xmlns="http://www.w3.org/2000/svg" width="50" height="42" viewBox="0 0 50 42" fill="none">
    <g clip-path="url(#clip0_581_3900)">
        <path fill-rule="evenodd" clip-rule="evenodd" d="M2.5 -4C3.88071 -4 5 -2.88071 5 -1.5V41H47.5C48.8807 41 50 42.1193 50 43.5C50 44.8807 48.8807 46 47.5 46H2.5C1.11929 46 0 44.8807 0 43.5V-1.5C0 -2.88071 1.11929 -4 2.5 -4Z" fill="#D2353B"/>
        <path fill-rule="evenodd" clip-rule="evenodd" d="M40.7322 11.7322C41.7085 10.7559 43.2914 10.7559 44.2677 11.7322C45.244 12.7085 45.244 14.2915 44.2677 15.2678L31.7677 27.7678C30.7914 28.7441 29.2085 28.7441 28.2322 27.7678L20 19.5355L14.2678 25.2678C13.2915 26.2441 11.7085 26.2441 10.7322 25.2678C9.75592 24.2914 9.75592 22.7085 10.7322 21.7322L18.2322 14.2322C19.2085 13.2559 20.7914 13.2559 21.7678 14.2322L30 22.4645L40.7322 11.7322Z" fill="#D2353B"/>
    </g>
    <defs>
        <clipPath id="clip0_581_3900">
            <rect width="50" height="41.6667" fill="white" transform="translate(0 0.166626)"/>
        </clipPath>
    </defs>
</svg>