<svg xmlns="http://www.w3.org/2000/svg" width="32" height="32" viewBox="0 0 32 32" fill="none">
    <path d="M17.3333 10.6667C18.3942 10.6667 19.4116 11.0881 20.1618 11.8382C20.9119 12.5884 21.3333 13.6058 21.3333 14.6667C21.3333 15.0203 21.4738 15.3594 21.7239 15.6095C21.9739 15.8595 22.313 16 22.6667 16C23.0203 16 23.3594 15.8595 23.6095 15.6095C23.8595 15.3594 24 15.0203 24 14.6667C24 12.8986 23.2976 11.2029 22.0474 9.95262C20.7971 8.70238 19.1014 8 17.3333 8C16.9797 8 16.6406 8.14048 16.3905 8.39052C16.1405 8.64057 16 8.97971 16 9.33333C16 9.68696 16.1405 10.0261 16.3905 10.2761C16.6406 10.5262 16.9797 10.6667 17.3333 10.6667Z" fill="white"/>
    <path d="M17.3333 5.33317C19.8086 5.33317 22.1826 6.3165 23.933 8.06684C25.6833 9.81718 26.6666 12.1911 26.6666 14.6665C26.6666 15.0201 26.8071 15.3593 27.0571 15.6093C27.3072 15.8594 27.6463 15.9998 28 15.9998C28.3536 15.9998 28.6927 15.8594 28.9428 15.6093C29.1928 15.3593 29.3333 15.0201 29.3333 14.6665C29.3333 11.4839 28.069 8.43166 25.8186 6.18122C23.5681 3.93079 20.5159 2.6665 17.3333 2.6665C16.9797 2.6665 16.6405 2.80698 16.3905 3.05703C16.1404 3.30708 16 3.64622 16 3.99984C16 4.35346 16.1404 4.6926 16.3905 4.94265C16.6405 5.19269 16.9797 5.33317 17.3333 5.33317ZM29 21.2132C28.9266 20.9991 28.8 20.8073 28.6321 20.6556C28.4641 20.504 28.2604 20.3976 28.04 20.3465L20.04 18.5198C19.8228 18.4706 19.5968 18.4765 19.3825 18.5371C19.1682 18.5976 18.9726 18.7109 18.8133 18.8665C18.6266 19.0398 18.6133 19.0532 17.7466 20.7065C14.8709 19.3814 12.5666 17.0676 11.2533 14.1865C12.9466 13.3332 12.96 13.3332 13.1333 13.1332C13.2889 12.9739 13.4022 12.7782 13.4627 12.5639C13.5233 12.3497 13.5292 12.1237 13.48 11.9065L11.6533 3.99984C11.6022 3.77943 11.4958 3.57566 11.3442 3.40772C11.1925 3.23977 11.0007 3.11317 10.7866 3.03984C10.4752 2.92862 10.1537 2.84824 9.82663 2.79984C9.48963 2.7217 9.14574 2.67704 8.79996 2.6665C7.1733 2.6665 5.61326 3.31269 4.46304 4.46292C3.31281 5.61314 2.66663 7.17318 2.66663 8.79984C2.67368 14.2434 4.83927 19.4621 8.68849 23.3113C12.5377 27.1605 17.7563 29.3261 23.2 29.3332C24.0054 29.3332 24.803 29.1745 25.5471 28.8663C26.2912 28.5581 26.9673 28.1063 27.5369 27.5368C28.1064 26.9672 28.5582 26.2911 28.8664 25.547C29.1746 24.8028 29.3333 24.0053 29.3333 23.1998C29.3337 22.8605 29.307 22.5216 29.2533 22.1865C29.1973 21.8553 29.1125 21.5296 29 21.2132ZM23.2 26.6665C18.4625 26.663 13.9201 24.7795 10.5702 21.4296C7.22033 18.0797 5.33682 13.5373 5.33329 8.79984C5.3368 7.8815 5.70317 7.00178 6.35254 6.35241C7.0019 5.70305 7.88162 5.33668 8.79996 5.33317H9.23996L10.6666 11.5198L9.94663 11.8932C8.79996 12.4932 7.89329 12.9732 8.37329 14.0132C9.15492 16.2259 10.4197 18.2368 12.0756 19.8997C13.7316 21.5625 15.7371 22.8357 17.9466 23.6265C19.0666 24.0798 19.5066 23.2398 20.1066 22.0798L20.4933 21.3465L26.6666 22.7598V23.1998C26.6631 24.1182 26.2967 24.9979 25.6474 25.6473C24.998 26.2966 24.1183 26.663 23.2 26.6665Z" fill="white"/>
</svg>