<svg xmlns="http://www.w3.org/2000/svg" width="25" height="25" viewBox="0 0 25 25" fill="none">
    <path d="M13.5417 8.33333C14.3705 8.33333 15.1653 8.66257 15.7514 9.24862C16.3374 9.83468 16.6667 10.6295 16.6667 11.4583C16.6667 11.7346 16.7764 11.9996 16.9718 12.1949C17.1671 12.3903 17.4321 12.5 17.7083 12.5C17.9846 12.5 18.2496 12.3903 18.4449 12.1949C18.6403 11.9996 18.75 11.7346 18.75 11.4583C18.75 10.077 18.2013 8.75224 17.2245 7.77549C16.2478 6.79873 14.923 6.25 13.5417 6.25C13.2654 6.25 13.0004 6.35975 12.8051 6.5551C12.6097 6.75045 12.5 7.0154 12.5 7.29167C12.5 7.56793 12.6097 7.83289 12.8051 8.02824C13.0004 8.22359 13.2654 8.33333 13.5417 8.33333Z" fill="white"/>
    <path d="M13.5416 4.16671C15.4755 4.16671 17.3301 4.93493 18.6976 6.30239C20.065 7.66984 20.8333 9.5245 20.8333 11.4584C20.8333 11.7346 20.943 11.9996 21.1383 12.1949C21.3337 12.3903 21.5987 12.5 21.8749 12.5C22.1512 12.5 22.4161 12.3903 22.6115 12.1949C22.8068 11.9996 22.9166 11.7346 22.9166 11.4584C22.9166 8.97197 21.9289 6.5874 20.1707 4.82925C18.4126 3.07109 16.028 2.08337 13.5416 2.08337C13.2653 2.08337 13.0004 2.19312 12.805 2.38847C12.6097 2.58382 12.4999 2.84877 12.4999 3.12504C12.4999 3.40131 12.6097 3.66626 12.805 3.86161C13.0004 4.05696 13.2653 4.16671 13.5416 4.16671ZM22.6562 16.573C22.5989 16.4057 22.5 16.2558 22.3688 16.1374C22.2376 16.0189 22.0784 15.9358 21.9062 15.8959L15.6562 14.4688C15.4865 14.4303 15.3099 14.435 15.1425 14.4823C14.9751 14.5296 14.8223 14.6181 14.6978 14.7396C14.552 14.875 14.5416 14.8855 13.8645 16.1771C11.6178 15.1419 9.81762 13.3343 8.79159 11.0834C10.1145 10.4167 10.1249 10.4167 10.2603 10.2605C10.3819 10.136 10.4704 9.98315 10.5177 9.81575C10.565 9.64835 10.5696 9.47177 10.5312 9.30212L9.10409 3.12504C9.06413 2.95285 8.98102 2.79366 8.86257 2.66245C8.74412 2.53124 8.59423 2.43233 8.427 2.37504C8.18374 2.28815 7.93253 2.22535 7.677 2.18754C7.41372 2.12649 7.14506 2.0916 6.87492 2.08337C5.60409 2.08337 4.38531 2.58821 3.4867 3.48682C2.58809 4.38543 2.08325 5.60421 2.08325 6.87504C2.08876 11.1279 3.78063 15.2049 6.78784 18.2121C9.79504 21.2193 13.8721 22.9112 18.1249 22.9167C18.7542 22.9167 19.3773 22.7928 19.9586 22.552C20.54 22.3112 21.0682 21.9582 21.5131 21.5133C21.9581 21.0683 22.311 20.5401 22.5518 19.9587C22.7926 19.3774 22.9166 18.7543 22.9166 18.125C22.9169 17.8599 22.896 17.5952 22.8541 17.3334C22.8103 17.0746 22.7441 16.8202 22.6562 16.573ZM18.1249 20.8334C14.4238 20.8306 10.875 19.3591 8.25793 16.742C5.64084 14.1249 4.16934 10.5762 4.16659 6.87504C4.16933 6.15759 4.45555 5.47031 4.96287 4.96299C5.47019 4.45567 6.15747 4.16945 6.87492 4.16671H7.21867L8.33325 9.00004L7.77075 9.29171C6.87492 9.76046 6.16659 10.1355 6.54159 10.948C7.15223 12.6767 8.14031 14.2477 9.43402 15.5468C10.7277 16.8459 12.2946 17.8405 14.0208 18.4584C14.8958 18.8125 15.2395 18.1563 15.7083 17.25L16.0103 16.6771L20.8333 17.7813V18.125C20.8305 18.8425 20.5443 19.5298 20.037 20.0371C19.5297 20.5444 18.8424 20.8306 18.1249 20.8334Z" fill="white"/>
</svg>