<svg width="50" height="50" viewBox="0 0 50 50" fill="none" xmlns="http://www.w3.org/2000/svg">
<g clip-path="url(#clip0_581_3005)">
<path d="M27.3454 49.9797C23.974 49.9797 21.3411 49.2049 18.5533 48.3844C16.3069 47.7229 13.9834 47.0393 10.9001 46.6068C10.0245 46.4828 9.41536 45.6745 9.53821 44.799C9.66145 43.9247 10.4701 43.3178 11.3452 43.4384C14.6613 43.9037 17.2091 44.6532 19.457 45.3147C22.1289 46.101 24.4352 46.7792 27.3461 46.7792C31.5797 46.7792 37.7815 44.371 45.7805 39.6217C46.5529 39.1632 47.0912 38.2516 46.622 37.3971C46.1715 36.5746 45.0511 36.2523 44.173 36.6925C43.6448 36.9582 43.1174 37.2254 42.5907 37.4939C37.4904 40.0914 31.144 43.3216 26.9494 42.2348C26.0297 41.9964 24.7454 41.536 23.2584 41.0042C20.8818 40.1532 17.9247 39.0938 15.1698 38.469C14.3085 38.2733 13.7675 37.4169 13.9636 36.5556C14.0097 36.3505 14.0959 36.1566 14.2171 35.9849C14.3383 35.8133 14.4921 35.6672 14.6699 35.555C14.8476 35.4429 15.0457 35.3669 15.2528 35.3314C15.46 35.2959 15.6721 35.3016 15.877 35.3482C18.82 36.0158 21.8786 37.1102 24.3364 37.9906C25.7508 38.4968 26.9727 38.9355 27.7517 39.1374C30.7756 39.9189 36.763 36.8703 41.1373 34.6421C41.6908 34.3603 42.2263 34.0863 42.7394 33.8308C45.1541 32.6211 48.155 33.531 49.4292 35.8586C50.6808 38.1459 49.8149 40.9458 47.4142 42.3725C38.7928 47.4918 32.2289 49.9797 27.3454 49.9797Z" fill="#ED1C24"/>
<path d="M31.9937 37.0704C31.6783 37.0704 31.3639 36.977 31.095 36.795C30.879 36.6483 30.7022 36.4511 30.5798 36.2204C30.4575 35.9897 30.3934 35.7327 30.3931 35.4716V14.8498C30.3931 13.9659 31.1099 13.2499 31.9937 13.2499H34.8365L25.4299 3.84444L16.0241 13.2499H18.8668C19.7506 13.2499 20.4666 13.9667 20.4666 14.8498V30.5576C20.4666 31.4419 19.7498 32.1582 18.8667 32.1582C17.9836 32.1582 17.2669 31.4419 17.2669 30.5576V16.4495H12.1624C11.846 16.4494 11.5367 16.3555 11.2736 16.1796C11.0105 16.0038 10.8055 15.7539 10.6844 15.4616C10.5633 15.1693 10.5315 14.8476 10.5932 14.5372C10.6548 14.2268 10.8071 13.9417 11.0307 13.7179L24.2988 0.450434C24.8984 -0.149168 25.9613 -0.149168 26.5609 0.450434L39.8303 13.7186C40.0538 13.9426 40.206 14.2277 40.2676 14.538C40.3292 14.8483 40.2975 15.1699 40.1766 15.4623C40.0555 15.7547 39.8505 16.0047 39.5874 16.1806C39.3242 16.3564 39.0148 16.4503 38.6983 16.4502H33.5936V33.0364C35.0661 32.3508 36.5065 31.5994 37.8306 30.9085C38.5855 30.5153 39.3137 30.1357 40.006 29.7897C42.1415 28.7204 44.4093 28.9685 45.7864 30.4219C47.0769 31.784 47.2492 33.8276 46.2232 35.6242C45.7864 36.3921 44.8091 36.6588 44.0412 36.2204C43.2733 35.7825 43.0063 34.8052 43.4438 34.0381C43.7646 33.4766 43.7715 32.9471 43.4628 32.6213C43.0799 32.2166 42.2845 32.2268 41.4385 32.65C40.7617 32.9887 40.0491 33.3602 39.3103 33.7459C37.2675 34.8114 34.9501 36.0202 32.5831 36.9578C32.3935 37.0334 32.1925 37.0704 31.9937 37.0704Z" fill="#ED1C24"/>
<path d="M40.9531 32.719C40.7779 32.719 40.5994 32.6904 40.4235 32.6289C39.5905 32.336 39.1514 31.4228 39.4432 30.5889C39.6072 30.1235 39.537 29.7134 39.2518 29.4632C38.8455 29.1053 38.0905 29.1347 37.2803 29.541C36.5945 29.8843 36.0192 30.186 35.4828 30.4657C34.5415 30.9574 33.7296 31.3827 32.6565 31.869C31.8532 32.2345 30.9053 31.8786 30.5383 31.0733C30.1729 30.268 30.5299 29.3209 31.334 28.9551C32.3261 28.5046 33.1029 28.099 34.0016 27.6303C34.5528 27.3422 35.1429 27.034 35.8475 26.6804C37.8479 25.6782 39.9632 25.8259 41.3662 27.0607C42.6429 28.183 43.0624 29.9396 42.4636 31.6478C42.2321 32.3074 41.6141 32.719 40.9531 32.719ZM24.3361 41.1196C23.8393 41.1196 23.3264 41.0319 22.8071 40.843C21.9771 40.5398 21.5494 39.6219 21.853 38.7916C22.1563 37.9615 23.0749 37.5343 23.9042 37.8375C24.8403 38.1797 25.5667 37.3634 25.8074 36.7697C26.0519 36.1693 26.0847 35.3389 24.8609 34.7911C24.4718 34.6171 24.0689 34.4306 23.6478 34.2342C20.1518 32.6125 15.3636 30.3913 6.93973 30.3913C6.05585 30.3913 5.33984 29.6753 5.33984 28.7914C5.33984 27.9075 6.05663 27.1908 6.93973 27.1908C16.0697 27.1908 21.2282 29.5838 24.9944 31.3308C25.4026 31.5197 25.7928 31.7009 26.1678 31.8691C29.1215 33.1905 29.5888 35.9596 28.7713 37.9717C28.0701 39.7051 26.3422 41.1196 24.3361 41.1196Z" fill="#ED1C24"/>
<path d="M6.93996 47.3427H1.59988C0.716788 47.3427 0 46.6259 0 45.7421C0 44.8583 0.716788 44.1422 1.59988 44.1422H5.34007V28.3832H3.19986V41.2756C3.19986 42.1594 2.48308 42.8754 1.59998 42.8754C0.716886 42.8754 0 42.1586 0 41.2755V26.7825C0 25.8994 0.716788 25.1826 1.59988 25.1826H6.93996C7.82422 25.1826 8.53984 25.8994 8.53984 26.7825V45.742C8.53984 46.6259 7.82422 47.3427 6.93996 47.3427ZM44.0367 25.2166C43.1529 25.2166 42.4372 24.4998 42.4372 23.6167V17.6834C42.4372 16.7996 43.1529 16.0835 44.0368 16.0835C44.921 16.0835 45.6366 16.8003 45.6366 17.6834V23.6167C45.6358 24.4998 44.9198 25.2166 44.0367 25.2166Z" fill="#ED1C24"/>
<path d="M47.0016 22.2499H41.0701C40.1859 22.2499 39.4703 21.5331 39.4703 20.65C39.4703 19.7669 40.1859 19.0502 41.0701 19.0502H47.0016C47.8853 19.0502 48.6011 19.7669 48.6011 20.65C48.6011 21.5331 47.8853 22.2499 47.0015 22.2499H47.0016ZM7.01785 12.3829C6.13358 12.3829 5.41797 11.6666 5.41797 10.7835V4.85013C5.41797 3.96635 6.13476 3.25024 7.01785 3.25024C7.90095 3.25024 8.61774 3.96703 8.61774 4.85013V10.7835C8.61774 11.6666 7.90095 12.3829 7.01785 12.3829Z" fill="#ED1C24"/>
<path d="M9.98341 9.41681H4.05203C3.16825 9.41681 2.45215 8.70002 2.45215 7.81692C2.45215 6.93383 3.16894 6.21704 4.05203 6.21704H9.98341C10.8673 6.21704 11.5833 6.93383 11.5833 7.81692C11.5833 8.70002 10.8665 9.41681 9.98341 9.41681Z" fill="#ED1C24"/>
</g>
<defs>
<clipPath id="clip0_581_3005">
<rect width="50" height="50" fill="white"/>
</clipPath>
</defs>
</svg>
