<svg width="50" height="50" viewBox="0 0 50 50" fill="none" xmlns="http://www.w3.org/2000/svg">
<path fill-rule="evenodd" clip-rule="evenodd" d="M27.3352 20.9939C26.379 19.0564 23.6206 19.0564 22.6644 20.9939L19.6769 27.0481L12.9936 28.0189C10.8581 28.3314 10.0061 30.9543 11.5519 32.4606L16.3852 37.1731L15.2456 43.8293C14.879 45.9564 17.1123 47.5793 19.0227 46.5752L25.0019 43.4314L30.9769 46.5752C32.8873 47.5793 35.1206 45.9564 34.7561 43.8293L33.6144 37.1751L38.4477 32.4606C39.9956 30.9543 39.1415 28.3293 37.0061 28.0189L30.3227 27.0481L27.3352 20.9939ZM25.0019 23.3231L27.6415 28.6772C28.0206 29.446 28.754 29.9772 29.604 30.1022L35.5123 30.9606L31.2373 35.1272C30.6227 35.7251 30.3415 36.5877 30.4873 37.4335L31.4956 43.3168L26.2123 40.5397C25.8387 40.3434 25.4229 40.2408 25.0008 40.2408C24.5788 40.2408 24.163 40.3434 23.7894 40.5397L18.504 43.3168L19.5123 37.4335C19.5838 37.0171 19.5528 36.5895 19.4222 36.1877C19.2915 35.7859 19.065 35.422 18.7623 35.1272L14.4873 30.9606L20.3956 30.1022C21.2456 29.9772 21.979 29.446 22.3581 28.6772L25.0019 23.3231Z" fill="white"/>
<path fill-rule="evenodd" clip-rule="evenodd" d="M10.9375 4.16675C10.9375 3.75235 11.1021 3.35492 11.3951 3.06189C11.6882 2.76887 12.0856 2.60425 12.5 2.60425H37.5C37.9144 2.60425 38.3118 2.76887 38.6049 3.06189C38.8979 3.35492 39.0625 3.75235 39.0625 4.16675V14.5834C39.0623 14.8919 38.9708 15.1934 38.7995 15.45C38.6282 15.7065 38.3848 15.9066 38.1 16.0251L25.6 21.2334C25.4096 21.3128 25.2053 21.3536 24.999 21.3536C24.7926 21.3536 24.5884 21.3128 24.3979 21.2334L11.8979 16.0251C11.6135 15.9063 11.3705 15.7061 11.1996 15.4495C11.0287 15.193 10.9375 14.8917 10.9375 14.5834V4.16675ZM14.0625 5.72925V13.5417L25 18.1001L35.9375 13.5417V5.72925H14.0625Z" fill="white"/>
</svg>
