<svg width="65" height="65" viewBox="0 0 65 65" fill="none" xmlns="http://www.w3.org/2000/svg">
<g clip-path="url(#clip0_581_2971)">
<path d="M32.4987 16.3179C23.5758 16.3179 16.3164 23.5773 16.3164 32.5002C16.3164 41.4231 23.5758 48.6825 32.4987 48.6825C41.4216 48.6825 48.6811 41.4231 48.6811 32.5002C48.6811 23.5773 41.4216 16.3179 32.4987 16.3179ZM32.4987 44.8739C25.6759 44.8739 20.125 39.323 20.125 32.5002C20.125 25.6774 25.6759 20.1265 32.4987 20.1265C39.3216 20.1265 44.8725 25.6774 44.8725 32.5002C44.8725 39.323 39.3216 44.8739 32.4987 44.8739Z" fill="#ED1C24"/>
<path d="M33.0108 4.08588L33.8459 3.25078C34.5896 2.50721 34.5896 1.30141 33.8459 0.557721C33.1023 -0.18597 31.8965 -0.185843 31.1528 0.557721L27.0735 4.63723C26.7163 4.99435 26.5156 5.47868 26.5156 5.9837C26.5156 6.48872 26.7162 6.97304 27.0735 7.33016L31.153 11.4097C31.5248 11.7815 32.0122 11.9674 32.4994 11.9674C32.9867 11.9674 33.4742 11.7815 33.8459 11.4095C34.5896 10.6659 34.5896 9.46018 33.8459 8.71649L33.0239 7.8946C46.3537 8.17491 57.1113 19.1043 57.1113 32.5C57.1113 33.5517 57.9639 34.4043 59.0156 34.4043C60.0673 34.4043 60.9199 33.5517 60.9199 32.5C60.9199 16.9998 48.4468 4.35997 33.0108 4.08588Z" fill="#ED1C24"/>
<path d="M33.5192 30.5958H31.5204C30.8608 30.5958 30.3242 30.0574 30.3242 29.3937C30.3242 28.7825 30.8196 28.2852 31.4285 28.2852H34.5391C35.5907 28.2852 36.4434 27.4326 36.4434 26.3809C36.4434 25.3293 35.5907 24.4766 34.5391 24.4766H34.4037V24.3413C34.4037 23.2896 33.5511 22.437 32.4994 22.437C31.4478 22.437 30.5951 23.2896 30.5951 24.3413V24.5489C28.2819 24.9464 26.5156 26.9671 26.5156 29.3957C26.5156 32.1576 28.7608 34.4045 31.5204 34.4045H33.5192C34.1564 34.4045 34.6746 34.9229 34.6746 35.5598C34.6746 36.1967 34.1564 36.715 33.5192 36.715H30.4597C29.408 36.715 28.5554 37.5677 28.5554 38.6193C28.5554 39.671 29.408 40.5236 30.4597 40.5236H30.5951V40.659C30.5951 41.7107 31.4478 42.5633 32.4994 42.5633C33.5511 42.5633 34.4037 41.7107 34.4037 40.659V40.4432C36.7201 40.0246 38.4832 37.9949 38.4832 35.5598C38.4832 32.8225 36.2565 30.5958 33.5192 30.5958Z" fill="#ED1C24"/>
<path d="M33.8451 53.5902C33.1015 52.8467 31.8957 52.8465 31.152 53.5902C30.4083 54.3339 30.4083 55.5396 31.152 56.2833L31.974 57.1052C18.6442 56.825 7.88672 45.8957 7.88672 32.5C7.88672 31.4483 7.0341 30.5957 5.98242 30.5957C4.93074 30.5957 4.07812 31.4483 4.07812 32.5C4.07812 48.0002 16.5513 60.6401 31.9872 60.9141L31.1521 61.7492C30.4085 62.4928 30.4085 63.6986 31.1521 64.4423C31.5239 64.814 32.0112 65 32.4986 65C32.986 65 33.4734 64.814 33.8451 64.4423L37.9246 60.3628C38.2817 60.0057 38.4824 59.5213 38.4824 59.0163C38.4824 58.5113 38.2818 58.027 37.9246 57.6699L33.8451 53.5902Z" fill="#ED1C24"/>
</g>
<defs>
<clipPath id="clip0_581_2971">
<rect width="65" height="65" fill="white" transform="translate(-0.000976562)"/>
</clipPath>
</defs>
</svg>
