<svg width="55" height="55" viewBox="0 0 55 55" fill="none" xmlns="http://www.w3.org/2000/svg">
<g clip-path="url(#clip0_581_2963)">
<path d="M7.18945 16.125V20.1875H27.502V16.125H7.18945ZM39.6895 16.125V18.2842C37.4043 18.6641 35.627 20.5998 35.627 22.9805C35.627 24.512 36.476 25.9156 37.8491 26.5981L43.752 29.582C43.7572 29.6834 43.7411 29.7848 43.7047 29.8796C43.6683 29.9744 43.6123 30.0605 43.5405 30.1323C43.4687 30.2041 43.3826 30.2601 43.2878 30.2965C43.193 30.3329 43.0917 30.349 42.9902 30.3438H40.4512C40.3498 30.349 40.2484 30.3329 40.1536 30.2965C40.0588 30.2601 39.9727 30.2041 39.9009 30.1323C39.8291 30.0605 39.7731 29.9744 39.7367 29.8796C39.7003 29.7848 39.6842 29.6834 39.6895 29.582V28.3125H35.627V29.582C35.627 31.9627 37.4043 33.8984 39.6895 34.2803V36.4375H43.752V34.2783C46.0371 33.8984 47.8145 31.9627 47.8145 29.582C47.8145 28.0505 46.9654 26.655 45.5923 25.9644L39.6895 22.9805C39.6895 22.5275 39.9982 22.2188 40.4512 22.2188H42.9902C43.4432 22.2188 43.752 22.5275 43.752 22.9805V24.25H47.8145V22.9805C47.8145 20.5998 46.0371 18.6641 43.752 18.2822V16.125H39.6895ZM7.18945 22.2188V26.2812H21.4082V22.2188H7.18945Z" fill="#ED1C24"/>
<rect x="1.37695" y="6.25" width="52.25" height="42.5" rx="2.5" stroke="#ED1C24" stroke-width="3"/>
<path fill-rule="evenodd" clip-rule="evenodd" d="M26.5511 29.601C27.1403 28.9663 28.0957 28.9663 28.685 29.601C29.2743 30.2356 29.2743 31.2644 28.685 31.899L21.1404 40.024C20.5511 40.6587 19.5957 40.6587 19.0064 40.024L14.0377 34.6731L10.5779 38.399C9.98858 39.0337 9.03318 39.0337 8.44391 38.399C7.85463 37.7644 7.85463 36.7356 8.44391 36.101L12.9707 31.226C13.56 30.5913 14.5154 30.5913 15.1046 31.226L20.0734 36.5769L26.5511 29.601Z" fill="#ED1C24"/>
</g>
<defs>
<clipPath id="clip0_581_2963">
<rect width="55" height="55" fill="white" transform="translate(0.00195312)"/>
</clipPath>
</defs>
</svg>
