<svg width="52" height="52" viewBox="0 0 52 52" fill="none" xmlns="http://www.w3.org/2000/svg">
<g clip-path="url(#clip0_581_2980)">
<path d="M8 4C6.93913 4 5.92172 4.42143 5.17157 5.17157C4.42143 5.92172 4 6.93913 4 8V44C4 45.0609 4.42143 46.0783 5.17157 46.8284C5.92172 47.5786 6.93913 48 8 48H44C45.0609 48 46.0783 47.5786 46.8284 46.8284C47.5786 46.0783 48 45.0609 48 44V8C48 6.93913 47.5786 5.92172 46.8284 5.17157C46.0783 4.42143 45.0609 4 44 4H8ZM8 0H44C46.1217 0 48.1566 0.842854 49.6569 2.34315C51.1571 3.84344 52 5.87827 52 8V44C52 46.1217 51.1571 48.1566 49.6569 49.6569C48.1566 51.1571 46.1217 52 44 52H8C5.87827 52 3.84344 51.1571 2.34315 49.6569C0.842854 48.1566 0 46.1217 0 44V8C0 5.87827 0.842854 3.84344 2.34315 2.34315C3.84344 0.842854 5.87827 0 8 0Z" fill="#ED1C24"/>
<path d="M15 32.1875C15.663 32.1875 16.2989 31.9241 16.7678 31.4553C17.2366 30.9864 17.5 30.3505 17.5 29.6875C17.5 29.0245 17.2366 28.3886 16.7678 27.9197C16.2989 27.4509 15.663 27.1875 15 27.1875C14.337 27.1875 13.7011 27.4509 13.2322 27.9197C12.7634 28.3886 12.5 29.0245 12.5 29.6875C12.5 30.3505 12.7634 30.9864 13.2322 31.4553C13.7011 31.9241 14.337 32.1875 15 32.1875ZM15 34.6875C13.6739 34.6875 12.4021 34.1607 11.4645 33.223C10.5268 32.2854 10 31.0136 10 29.6875C10 28.3614 10.5268 27.0896 11.4645 26.152C12.4021 25.2143 13.6739 24.6875 15 24.6875C16.3261 24.6875 17.5979 25.2143 18.5355 26.152C19.4732 27.0896 20 28.3614 20 29.6875C20 31.0136 19.4732 32.2854 18.5355 33.223C17.5979 34.1607 16.3261 34.6875 15 34.6875Z" fill="#ED1C24"/>
<path d="M37 38.5C36.337 38.5 35.7011 38.7634 35.2322 39.2322C34.7634 39.7011 34.5 40.337 34.5 41C34.5 41.663 34.7634 42.2989 35.2322 42.7678C35.7011 43.2366 36.337 43.5 37 43.5C37.663 43.5 38.2989 43.2366 38.7678 42.7678C39.2366 42.2989 39.5 41.663 39.5 41C39.5 40.337 39.2366 39.7011 38.7678 39.2322C38.2989 38.7634 37.663 38.5 37 38.5ZM37 36C38.3261 36 39.5979 36.5268 40.5355 37.4645C41.4732 38.4021 42 39.6739 42 41C42 42.3261 41.4732 43.5979 40.5355 44.5355C39.5979 45.4732 38.3261 46 37 46C35.6739 46 34.4021 45.4732 33.4645 44.5355C32.5268 43.5979 32 42.3261 32 41C32 39.6739 32.5268 38.4021 33.4645 37.4645C34.4021 36.5268 35.6739 36 37 36Z" fill="#ED1C24"/>
<path d="M20.0625 27.9375H39.5625C41.1875 27.9375 42 28.5104 42 29.6562C42 30.8021 41.1875 31.375 39.5625 31.375H20.0625C18.4375 31.375 17.625 30.8021 17.625 29.6562C17.625 28.5104 18.4375 27.9375 20.0625 27.9375Z" fill="#ED1C24"/>
<path d="M31.9375 42.75L12.4375 42.75C10.8125 42.75 10 42.1771 10 41.0312C10 39.8854 10.8125 39.3125 12.4375 39.3125L31.9375 39.3125C33.5625 39.3125 34.375 39.8854 34.375 41.0312C34.375 42.1771 33.5625 42.75 31.9375 42.75Z" fill="#ED1C24"/>
<path fill-rule="evenodd" clip-rule="evenodd" d="M38.098 8.04447C38.9907 7.15184 40.4379 7.15184 41.3305 8.04447C42.2232 8.9371 42.2232 10.3843 41.3305 11.277L29.902 22.7055C29.0093 23.5982 27.5621 23.5982 26.6695 22.7055L19.1429 15.1789L13.902 20.4198C13.0093 21.3124 11.5621 21.3124 10.6695 20.4198C9.77684 19.5272 9.77684 18.08 10.6695 17.1873L17.5266 10.3302C18.4192 9.43756 19.8665 9.43756 20.7591 10.3302L28.2857 17.8568L38.098 8.04447Z" fill="#ED1C24"/>
</g>
<defs>
<clipPath id="clip0_581_2980">
<rect width="52" height="52" fill="white"/>
</clipPath>
</defs>
</svg>
