<svg width="50" height="50" viewBox="0 0 50 50" fill="none" xmlns="http://www.w3.org/2000/svg">
<g clip-path="url(#clip0_581_3017)">
<path d="M50 41.6666V12.4999C50 10.8423 49.3415 9.25262 48.1694 8.08051C46.9973 6.90841 45.4076 6.24993 43.75 6.24993H41.6667C41.6665 5.28269 41.4418 4.32869 41.0103 3.46303C40.5788 2.59737 39.9523 1.84367 39.18 1.26126C38.4078 0.678849 37.5109 0.28362 36.56 0.106683C35.6091 -0.070254 34.63 -0.0240703 33.7 0.241599L27.45 2.0291C26.5405 2.28924 25.7025 2.75385 25 3.38743C24.2975 2.75385 23.4595 2.28924 22.55 2.0291L16.3 0.241599C15.37 -0.0240703 14.3909 -0.070254 13.44 0.106683C12.4891 0.28362 11.5922 0.678849 10.82 1.26126C10.0477 1.84367 9.42122 2.59737 8.98972 3.46303C8.55822 4.32869 8.33353 5.28269 8.33333 6.24993H6.25C4.5924 6.24993 3.00268 6.90841 1.83058 8.08051C0.65848 9.25262 0 10.8423 0 12.4999L0 41.6666H22.9167V45.8333H14.5833V49.9999H35.4167V45.8333H27.0833V41.6666H50ZM27.0833 8.03743C27.0835 7.58496 27.231 7.14486 27.5035 6.78366C27.776 6.42245 28.1587 6.15978 28.5938 6.03535L34.8438 4.24993C35.03 4.19602 35.2228 4.16798 35.4167 4.1666C35.9692 4.1666 36.4991 4.38609 36.8898 4.77679C37.2805 5.16749 37.5 5.6974 37.5 6.24993V19.2624L27.0833 22.2374V8.03743ZM12.5 6.24993C12.5005 5.92767 12.5757 5.60992 12.7197 5.32165C12.8638 5.03338 13.0728 4.78246 13.3302 4.58863C13.5876 4.39479 13.8865 4.26331 14.2034 4.20454C14.5202 4.14577 14.8464 4.16131 15.1562 4.24993L21.4062 6.03535C21.8413 6.15978 22.224 6.42245 22.4965 6.78366C22.769 7.14486 22.9165 7.58496 22.9167 8.03743V22.2374L12.5 19.2624V6.24993ZM4.16667 12.4999C4.16667 11.9474 4.38616 11.4175 4.77686 11.0268C5.16756 10.6361 5.69747 10.4166 6.25 10.4166H8.33333V22.4041L25 27.1666L41.6667 22.4041V10.4166H43.75C44.3025 10.4166 44.8324 10.6361 45.2231 11.0268C45.6138 11.4175 45.8333 11.9474 45.8333 12.4999V37.4999H4.16667V12.4999Z" fill="#ED1C24"/>
</g>
<defs>
<clipPath id="clip0_581_3017">
<rect width="50" height="50" fill="white"/>
</clipPath>
</defs>
</svg>
