<svg width="51" height="51" viewBox="0 0 51 51" fill="none" xmlns="http://www.w3.org/2000/svg">
<g clip-path="url(#clip0_581_2957)">
<path d="M43.3747 14.6695H37.9581V22.7945H29.8331V28.2112H37.9581V36.3362H43.3747V28.2112H51.4997V22.7945H43.3747V14.6695ZM4.91667 15.2112C4.88331 16.643 5.14073 18.0666 5.67335 19.3961C6.20597 20.7255 7.00272 21.9331 8.01541 22.9458C9.0281 23.9585 10.2357 24.7552 11.5651 25.2879C12.8946 25.8205 14.3182 26.0779 15.75 26.0445C17.1818 26.0779 18.6054 25.8205 19.9349 25.2879C21.2643 24.7552 22.4719 23.9585 23.4846 22.9458C24.4973 21.9331 25.294 20.7255 25.8267 19.3961C26.3593 18.0666 26.6167 16.643 26.5833 15.2112C26.6167 13.7794 26.3593 12.3558 25.8267 11.0263C25.294 9.69689 24.4973 8.48931 23.4846 7.47662C22.4719 6.46393 21.2643 5.66717 19.9349 5.13456C18.6054 4.60194 17.1818 4.34452 15.75 4.37787C14.3182 4.34452 12.8946 4.60194 11.5651 5.13456C10.2357 5.66717 9.0281 6.46393 8.01541 7.47662C7.00272 8.48931 6.20597 9.69689 5.67335 11.0263C5.14073 12.3558 4.88331 13.7794 4.91667 15.2112ZM21.1667 15.2112C21.2015 15.9318 21.0852 16.6516 20.8254 17.3246C20.5655 17.9975 20.1677 18.6087 19.6576 19.1188C19.1475 19.6289 18.5363 20.0267 17.8634 20.2866C17.1904 20.5464 16.4706 20.6627 15.75 20.6279C15.0294 20.6627 14.3096 20.5464 13.6366 20.2866C12.9637 20.0267 12.3525 19.6289 11.8424 19.1188C11.3323 18.6087 10.9345 17.9975 10.6747 17.3246C10.4148 16.6516 10.2985 15.9318 10.3333 15.2112C10.2985 14.4907 10.4148 13.7708 10.6747 13.0978C10.9345 12.4249 11.3323 11.8137 11.8424 11.3036C12.3525 10.7935 12.9637 10.3957 13.6366 10.1359C14.3096 9.87597 15.0294 9.75971 15.75 9.79454C16.4706 9.75971 17.1904 9.87597 17.8634 10.1359C18.5363 10.3957 19.1475 10.7935 19.6576 11.3036C20.1677 11.8137 20.5655 12.4249 20.8254 13.0978C21.0852 13.7708 21.2015 14.4907 21.1667 15.2112ZM4.91667 42.2945C4.91667 40.1397 5.77269 38.073 7.29642 36.5493C8.82016 35.0256 10.8868 34.1695 13.0417 34.1695H18.4583C20.6132 34.1695 22.6798 35.0256 24.2036 36.5493C25.7273 38.073 26.5833 40.1397 26.5833 42.2945V45.0029H32V42.2945C32 40.5162 31.6497 38.7553 30.9692 37.1124C30.2887 35.4694 29.2912 33.9766 28.0337 32.7191C26.7763 31.4617 25.2835 30.4642 23.6405 29.7837C21.9976 29.1031 20.2366 28.7529 18.4583 28.7529H13.0417C9.45019 28.7529 6.00582 30.1796 3.46626 32.7191C0.926707 35.2587 -0.5 38.7031 -0.5 42.2945V45.0029H4.91667V42.2945Z" fill="#F5F5F5"/>
</g>
<defs>
<clipPath id="clip0_581_2957">
<rect width="51" height="51" fill="white"/>
</clipPath>
</defs>
</svg>
